<?xml version="1.0" encoding="UTF-8"?>
<svg id="Layer_1" data-name="Layer 1" xmlns="http://www.w3.org/2000/svg" viewBox="0 0 1080 1080">
  <defs>
    <style>
      .cls-1 {
        fill: #27442c;
        stroke: #000;
        stroke-miterlimit: 10;
        stroke-width: 4px;
      }

      .cls-2 {
        fill: #fff;
      }
    </style>
  </defs>
  <path class="cls-2" d="M1043.91,1092.04c-41.23,29.01-90.08,44.06-143.07,46.44l-724.96-.08c-119.27-5.39-217.48-88.42-224.81-192.8l-.09-804.87C-42.34,34.9,52.15-51.4,174.05-58.41l732.3-.08c123.96,6.12,219.2,95.36,224.81,202.41v793.75c-2.02,36.18-12.78,69.14-33.47,100.42-2.49,3.76-15.8,18.4-16.11,19.58M434.63,1058.41c8.65.85,18.68-.61,27.53,0l2.49-3.72c-4.07-6.98-8.67-15.05-14.46-21.04-15.1-15.62-38.92-11.63-55.01-27.25l35.9-23.1c3.81-.69,2.08.52,2.8,2.13,7.74,17.25,13.3,32.67,24.76,48.86,5,7.07,17.41,23.74,27.38,24.27,13.34.71,43.61-23.54,53.47-32.03,14.89,8.38,43.74,37.86,62.61,30.68,7.08-2.7,24.08-27.56,28.3-34.52,7.6-12.55,13.86-25.72,18.06-39.47l38.51,21.59c-11.75,15.29-40.63,15.07-53.27,25.56-4.01,3.33-18.66,24.47-14.63,28.05,29.55,1.73,67.78-7.12,89.95-24.78,3.62-2.88,13.04-14.97,14.13-15.23,6.04-1.45,20.16,2.13,28.96,1.58,32.41-2.01,57.83-21.63,72.5-45.58,44.94.27,82.68-28.49,86.57-67.71,21.3-5.11,41.7-16.61,51.42-34.38,6.01-10.98,7.33-22.57,14.71-33.58,16.23-24.18,46.4-30.32,39.17-63.6-.77-3.56-3.68-10.55-9.05-9.33-1.19.27-12.72,12.61-17.05,15.54-35.11,23.8-64.75,8.23-102.54,9.81-12.23.51-40.4,8.89-47.51,8.07-3.78-.44-20.08-10.19-26.08-12.58-43.53-17.34-99.11-16.67-134.46-37.97-37.15-22.39-31.67-45.9-41.06-79.4-4.82-17.19-13.69-33.31-19.78-50.12,7.45-13.82,15.27-25.75,16.7-41.48,3.06-33.74-2.2-44.51,19.35-75.93,35.06-51.11,110.1-67.06,153.14-13.77,4.5,5.58,14.71,25.99,17.36,28.05,1.14.89,2.09,1.68,3.75,1.67l5.09-.36c9.69-2.58,9.3-27.94,8.14-35.32-2.73-17.43-15.22-28.8-30.71-38.82,70.53,2.22,153,27.27,197.08,77.78,3.09,3.54,14.73,16.18,13.75,19.49-19.72,21.32-31.97,48.43-57.61,65.13.41-6.95,5.6-13.9,7.41-20.74,8.62-32.43-11.55-65.29-41.51-83.92-10.35-6.44-30.33-17.46-30.44,1.16-.16,26.56,30.53,36.75,35.29,57.01,5.16,21.93-9.08,37.92-25.77,52.43-13.42-4.03-23.04-16.03-17.39-28.3,3.64-2.22,17.94,10.33,27.25.57,12.18-12.77-1.85-34.56-19.5-37.03-30.82-4.31-50.06,22.61-48.16,46.79,1.78,22.62,19.01,39,41.29,48.79-2.39,54.84,72.6,57.12,114.69,37.66,48.11-22.24,74.91-69.33,65.56-116.42-1.48-7.44-7.02-17.54-7.02-24.41-.01-8.73,8.19-22.85,9.3-33.63,4.62-44.75-20.23-77.37-54.84-107.4,37.68-49.65,20.42-104.59-37.82-133.37,1.86-46.87-32.38-85.34-84.93-94.76-15.36-46.42-58.3-90.43-117.58-91.1-18.5-30.96-48.05-48.24-89.25-46.13-5.66.29-15.04,3.49-19.85,2.87-2.09-.27-28.08-17.68-34.93-20.77-21.25-9.58-49.8-16.25-73.83-14.23-16,1.35-13.42,15.52-11.62,26.33,3.41,20.53,14.76,38.9,27.3,56.05l-37.59,29.68-37.56-31.17c14.3-16.61,26.15-39.67,27.44-60.81.5-8.15,1.58-18.72-9.97-20.07-24.89-2.91-58.86,5.65-80.48,16.39-6.18,3.07-27.16,18.03-30.15,18.57-3.93.71-11.05-2.56-16.11-2.86-44.78-2.71-71.5,13.82-94.5,45.58-60.39,3.01-97.96,43.86-116.58,90.36-52.29,13.38-85.42,46.86-84.81,95.67-17.16,12.17-34.17,21.53-45.48,38.75-20.44,31.12-12.21,65.69,8.02,95C26.11,429.73.43,462.42,6.3,508.62c1.17,9.18,10.11,24.33,10.36,30.85.13,3.57-7.65,19.81-8.49,27.12C0,637.87,73.45,712.08,157.61,687.28c24.48-7.22,32.27-25.02,32.31-46.24,40.84-10.75,56.58-65.79,20.81-88.24-26.75-16.78-62.58,2.49-49.28,28.64,7.57,14.9,22.58-1.18,28.29,2.43,7.04,11.96-4.95,23.98-17.3,27.9-16.48-16.48-33.23-33.55-23.27-56.67,6.32-14.68,22.82-22.29,29.04-37.09,10.52-25.04,1.26-32.4-24.02-17.74-34.24,19.85-52.21,53.57-42.15,88.95.6,2.1,10.02,18.31,2.32,13.98-20.39-11.46-38.74-46.59-53.13-64.02,39.97-64.99,128.42-90.35,208.21-96.83,2.36.34-1.04,2.64-1.77,3.25-12.36,10.35-20.62,14.12-25.77,30.33-4.07,12.83-6.71,42.97,15.37,41.38,24.7-58.89,90.18-84.72,148.94-38.96,20.14,15.68,38.4,48.64,40.31,72.04.61,7.52-1.95,13.01-1.95,19.18,0,17.76,10.97,35.7,19.71,51.2-7.8,13.88-15.89,30.66-20.46,45.61-7.24,23.68-3.99,44.51-22.19,65.46-33.77,38.86-86.02,31.84-133.34,46.95-16.36,5.22-31.49,12.67-46.42,20.36-43.6-18.29-100.64,6.56-140.21-12.07-10.78-5.08-19.79-14.25-28.68-21.44-5.56-1.09-10.13,15.92-10.02,19.87.61,22.52,31.08,36.16,41.94,53.15,5.65,8.84,7.7,20.14,12.29,29.29,10.17,20.25,28.65,33.06,53.25,38.37,5.35,39.89,40.86,67.74,87.13,68.04,20.24,33.72,55.27,51.61,99.58,44.28,17.81,19.66,48.4,36.89,77.5,39.74Z"/>
  <path class="cls-1" d="M1021.16,398.16c37.68-49.65,20.42-104.59-37.82-133.37,1.86-46.87-32.38-85.34-84.93-94.76-15.36-46.42-58.3-90.43-117.58-91.1-18.5-30.96-48.05-48.24-89.25-46.13-5.66.29-15.04,3.49-19.85,2.87-2.09-.27-28.08-17.68-34.93-20.77-21.25-9.58-49.8-16.25-73.83-14.23-16,1.35-13.42,15.52-11.62,26.33,3.41,20.53,14.76,38.9,27.3,56.05l-37.59,29.68-37.56-31.17c14.3-16.61,26.15-39.67,27.44-60.81.5-8.15,1.58-18.72-9.97-20.07-24.89-2.91-58.86,5.65-80.48,16.39-6.18,3.07-27.16,18.03-30.15,18.57-3.93.71-11.05-2.56-16.11-2.86-44.78-2.71-71.5,13.82-94.5,45.58-60.39,3.01-97.96,43.86-116.58,90.36-52.29,13.38-85.42,46.86-84.81,95.67-17.16,12.17-34.17,21.53-45.48,38.75-20.44,31.12-12.21,65.69,8.02,95C26.11,429.73.43,462.42,6.3,508.62c.73,5.73,4.48,13.78,7.27,20.61,1.35.16,2.5.84,2.81,1.22,1.7.38,3.42.64,5.13.97.08.02.15.03.22.04,8.3.55,16.53.84,24.86.48,1.97-.09,3.93-.2,5.9-.35,1.28-.09,2.56-.2,3.84-.33,3.35-.35,2.52-.24-2.49.32,2.75.36,6.71-.91,9.54-1.61,1.7-1.9,3.68-3.61,5.84-5.07,1.31-.88,2.61-1.62,3.93-2.26,43.89-52.83,123.67-74.38,196.29-80.28,2.36.34-1.04,2.64-1.77,3.25-12.36,10.35-20.62,14.12-25.77,30.33-4.07,12.83-6.71,42.97,15.37,41.38,24.7-58.89,90.18-84.72,148.94-38.96,20.14,15.68,38.4,48.64,40.31,72.04.61,7.52-1.95,13.01-1.95,19.18,0,17.76,10.97,35.7,19.71,51.2-7.8,13.88-15.89,30.66-20.46,45.61-7.24,23.68-3.99,44.51-22.19,65.46-33.77,38.86-86.02,31.84-133.34,46.95-16.36,5.22-31.49,12.67-46.42,20.36-43.6-18.29-100.64,6.56-140.21-12.07-10.78-5.08-19.79-14.25-28.68-21.44-5.56-1.09-10.13,15.92-10.02,19.87.61,22.52,31.08,36.16,41.94,53.16,5.65,8.84,7.7,20.14,12.29,29.29,10.17,20.25,28.65,33.06,53.25,38.37,5.35,39.89,40.86,67.74,87.13,68.04,20.24,33.72,55.27,51.61,99.58,44.28,17.81,19.66,48.4,36.89,77.5,39.74,8.65.85,18.68-.61,27.53,0l2.49-3.72c-4.07-6.98-8.67-15.05-14.46-21.04-15.1-15.62-38.92-11.63-55.01-27.25l35.9-23.1c3.81-.69,2.08.52,2.8,2.13,7.74,17.25,13.3,32.67,24.76,48.86,5,7.07,17.41,23.74,27.38,24.27,13.34.71,43.61-23.54,53.47-32.03,14.89,8.38,43.74,37.86,62.61,30.68,7.08-2.7,24.08-27.56,28.3-34.52,7.6-12.55,13.86-25.72,18.06-39.47l38.51,21.59c-11.75,15.29-40.63,15.07-53.27,25.56-4.01,3.33-18.66,24.47-14.63,28.05,29.55,1.73,67.78-7.12,89.95-24.78,3.62-2.88,13.04-14.97,14.13-15.23,6.04-1.45,20.16,2.13,28.96,1.58,32.41-2.01,57.83-21.63,72.5-45.58,44.94.27,82.68-28.49,86.57-67.71,21.3-5.11,41.7-16.61,51.42-34.38,6.01-10.98,7.33-22.57,14.71-33.58,16.23-24.18,46.4-30.32,39.17-63.6-.77-3.56-3.68-10.55-9.05-9.33-1.19.27-12.72,12.61-17.05,15.54-35.11,23.8-64.75,8.23-102.54,9.81-12.23.51-40.4,8.89-47.51,8.07-3.78-.44-20.08-10.19-26.08-12.58-43.53-17.34-99.11-16.67-134.46-37.97-37.15-22.39-31.67-45.9-41.06-79.4-4.82-17.19-13.69-33.31-19.78-50.12,7.45-13.82,15.27-25.75,16.7-41.48,3.06-33.75-2.2-44.51,19.35-75.93,35.06-51.11,110.1-67.06,153.14-13.77,4.5,5.58,14.71,25.99,17.36,28.05,1.14.89,2.09,1.68,3.75,1.67l5.09-.36c9.69-2.58,9.3-27.94,8.14-35.32-2.73-17.43-15.22-28.8-30.71-38.82,70.53,2.22,153,27.27,197.08,77.78,1.96,2.24,7.32,8.11,10.76,12.97,2.9.46,5.8.92,8.71,1.36,1.61.24,3.22.48,4.84.71.06,0,2.92.34,4.17.51.66.06,1.26.11,1.46.13,1.68.14,3.35.27,5.03.36.02,0,.04,0,.07,0,5.4-.11,10.91-.27,16.57-.38,1.23-.32,2.75-.85,3.97-.93.88-.51,1.95-1.02,2.93-1.47,1.96-8.55,7.72-19.74,8.63-28.65,4.62-44.75-20.23-77.37-54.84-107.4ZM978.77,306.4c2.52-2.57,13.87,11.37,15.12,13.2,12.51,18.38,7.22,37.18-2.31,55.59l-27.3-18.7c5.11-16.5,14.72-32.66,14.48-50.09ZM933.3,228.42c5.26,6.65,8.79,13.66,8.75,21.96l-26.71-6.3-2.63-32.09c2.26-2.22,18.75,14.09,20.6,16.43ZM912.71,279.19l30.86,10.53-10.71,42.26c-15.67-14.8-23.01-32.45-20.16-52.79ZM868.78,201.48l7.21,37.7-62.4-.75c-2.52-1.48-1.51-2.47-1.39-4.36.58-9.37,2.4-19.01,3.38-28.35,17.48-2.53,35.31-6.74,53.2-4.24ZM853.97,165.56l-40.37,4.82-11.01-52.8c25.35,7.02,40.87,27.95,51.37,47.97ZM772.69,162.05c1.05,5.66,4.72,17.69-.54,21-7.29,4.58-25.61,6.98-33.77,12.94,3.96-25.38,4.55-49.91-5.1-74.48l22.23-6.97c5.78,1.42,15.9,40.58,17.19,47.51ZM736.52,83.97l-18.42,4.13-12.76-20.11c3.8-2.94,29.52,10.04,31.19,15.97ZM697.96,138.39c9.4,28.76,2.08,62.57-18.31,86.4.84-22.82-1.44-45.83-8.88-67.8l27.19-18.6ZM635.74,89.84c.73-2.12,23.68-13.98,25.59-13.15,3.29,4,24.38,26.42,21.86,29.56l-26.51,16.11c-2.82-5.62-22.28-28.66-20.95-32.52ZM628.2,51.18l-17.26,10.37c-6.67-6.34-10.42-14.46-13.9-22.35,2.75-1.88,31.13,10.4,31.16,11.98ZM569.4,193.8l-28.33,32.56-27.98-31.15,26.21-31.22c5.47-1.19,24.45,26.19,30.1,29.81ZM582.67,537.87c1.58-1.78,1.84-3.31,5.18-2.66,3.57,15.22,9.17,30.87,5.5,46.39-5.09-3.88-24-21.69-23.81-26.44,4.38-5.23,8.76-12.36,13.13-17.29ZM568.23,435.19c4.94-5.7,8.98-12.8,15.95-16.8.7,3.09-.81,30.62-4.57,30.37l-11.38-13.57ZM587.85,653.6l-8.24,23.97-10.06-8.77,18.3-15.2ZM602.53,722.4c-1.9,18.46-7.03,37.38-19.25,52.77l-13.55-14.93,32.8-37.84ZM598.86,328.78c-1.39.92-3.9-3.43-4.56-4.8-4.9-10.15-7.65-22.61-12.91-33.54-4.88-10.13-11.88-19.52-16.73-29.66l25.07-34.39c2.46-1.45,8.94,14.33,9.67,16.34,10.24,28.06,8.63,57.99-.54,86.05ZM539.23,463.22l24.7,31.15-22.86,32.79-22.8-32.77,20.96-31.17ZM528.66,325.97c2.97-8.89,6.7-20.6,13.31-27.58,10.29,28.06,28.08,57.15,14.46,86.99-1.52,3.33-13.59,21.31-18.08,18.6-4.35-8.03-11.63-14.31-14.82-23.1-6.82-18.81-1-36.61,5.13-54.92ZM492.97,579.56c-1.12,1.13.07,3.02-4.19,2.03-3.65-12.89-1.19-32.35,5.05-44.38,1.12-2.16.18-2.52,4.08-2.02l14.33,21.35c-.16,1.49-16.63,20.35-19.27,23.02ZM502.53,677.57l-8.25-22.36c1.87-1.65,15.78,10.52,16.31,12.31,1.26,4.18-5.32,7.13-8.06,10.05ZM512.29,761.62l-13.47,11.97c-2.59.51-3.12-1.22-4.15-2.73-9.6-14.05-13.26-32.56-16.89-48.46l34.52,39.22ZM499.79,447.18l-1.83-28.79,16.07,15.18c-.52,2.22-11.41,16.41-14.25,13.61ZM486.92,328.79c-4.85.47-2.9-.09-3.69-2.36-12.01-34.51-11.23-61.6,5.04-94.95.95-1.96-.81-4.25,3.22-3.48l26.34,31.45c-11.55,22.52-27.03,44.41-30.91,69.35ZM485.1,39.2l-12.89,22.38-18.28-10.4c.04-1.59,28.43-13.86,31.16-11.98ZM422.05,76.15l26.34,12.66-22.94,33.55-26.51-16.11c-1.93-2.4,19.51-29.59,23.11-30.1ZM385.07,138.39l26.43,17.84c-7.49,21.11-8.08,41.22-8.99,62.97-.08,1.93,1.38,5.96-1.81,5.57-16.92-25.65-27.12-57.32-15.63-86.38ZM376.81,67.99c2.07,1.74-10.93,17.29-12.83,20.11l-18.35-4.13c6.98-9.17,18.65-14.95,31.19-15.97ZM323.65,114.38l23.65,6.55c-1.05,12.03-6.47,23.71-7.26,35.79-.88,13.41,3.38,26.03,2.84,39.25-5.2-5.01-35.59-11.08-35.7-16.65,2.4-22.29,8.32-43.83,16.47-64.94ZM279.55,117.59l-11.02,54.39c-12.87-4.05-26.75-5.26-40.35-4.81,9.07-20.76,26.13-42.47,51.37-49.58ZM213.36,201.48c17.89-2.49,35.76,1.29,53.17,4.26l3.84,31.84-64.23,1.6,7.22-37.7ZM171.28,212l-3.76,33.51-27.42,6.47c1.47-15.97,13.44-34.54,31.18-39.99ZM169.43,280.78c1.94,18-4.08,37.72-20.16,49.6l-10.24-41.69,30.4-7.91ZM88.99,317.04c1.51-2.23,11.26-13.51,14.38-10.65.03,17.62,8.72,34.27,16.38,50.23l-28.23,17.03c-11.04-18.1-15.02-38.18-2.53-56.62ZM44.67,496.79c-1.49-28.34,18.8-52.12,40.4-71.31l3.54.04,31.25,17.67c-28.84,14.52-52.8,32.26-75.19,53.6ZM274.04,407.18c-53.72.69-106.94,27.26-155.95-5.59l22.91-16.79c12.92,18.88,66.73,36.3,82.49,14.32,8.78-12.24-.65-50.88-13.64-61.59-19.15,5.34-19.52,22.73-18.4,37.66l-20.04-10.56,28.96-38.47,9.41-29.36c8.31,30.48,23.21,63.09,44.38,88.52,5.09,6.11,13.86,12.52,18.06,17.85,1.07,1.35,2.56,1.58,1.8,4.01ZM455.71,443.99c-43.55-29.32-102.58-29.18-144.98-59.98-24.47-17.77-43.6-44.82-54.57-70.83-4.26-10.1-10.79-27.6-11.49-38.01-.22-3.36,0-2.03,2.71-2.39,9.45-1.26,20.25,2.85,30.1,1.81,14.9,52,56.08,111.71,118.09,128.25,5.74,1.53,26.62,7.2,28.7,1.72,1.39-3.67.58-21.75.25-26.95-3.23-50.94-27.66-101.76-83.17-124.29-5.82-2.36-26.84-7.23-28.79-8.5-5.21-3.42-1.9-19.58-5.48-24.81,5.6-3.51,60.97,29.53,68.77,35.23,40.66,29.73,54.54,61.32,66.14,105.54,2.64,10.06,16.9,79.46,13.73,83.22ZM323.6,285.6c33.24,11.68,53.59,41.8,56.87,71.99-28.44-17.1-45.99-43.96-56.87-71.99ZM446.53,231.17c-3.31-.83-3.53-7.9-3.72-10.33-.96-12.56.75-25.2,1.93-37.66l18.15,15.43c-6.58,10.36-12.91,21-16.36,32.56ZM458.08,145.61l22.43-34.39,33.5,26.35-28.25,29.51-27.68-21.46ZM301.09,810.78c20.97-6.92,44.28-9.55,66.55-9.96-20.43,24.13-48.13,26.17-78.9,15.97,2-2.7,8.88-4.86,12.35-6ZM174.93,871.2c-23.43-2.4-27.61-27.48-34.85-43.18,1.62-2.01,49.83-3.89,56.06-3.3,2.77.26,4.55.16,6.3,2.48-11.78,12.97-23.43,27.52-27.51,44ZM213.5,912.81c22.41.58,29.73,9.47,34.86,27.18-16.51-2.51-31.06-12.46-34.86-27.18ZM301.61,971.2c-.07-2.05,16.92-4.93,19.76-5.18,6.79-.6,9.89-1.09,14.08,4.44,19.9,26.3-25.17,13.34-33.84.74ZM424.27,945.24l-44.7,29.93c-7.5-11.93-8.51-25.05-21.27-34.23-23.61-16.99-46.91-4.26-73.21-2.57l-5.51-20.7c16.39-3.8,34.68-14.15,52.06-12.72,27.07,2.24,55.41,25.67,63.62,47.78,7.59.89,12.06-6.92,14.07-12.38,5.22-14.14,1.75-25.82-6.51-38.22-4.73-7.09-11.6-11.29-14.99-18.11l45.87-19.21c-11.15,25.15-13.11,53.8-9.44,80.42ZM438.72,820.36c-39.69,23.87-87.93,42.77-133.54,56.38-8.05,2.4-41.77,13.1-47.05,13.26-6.8.2-34.23-15.1-46.47-10.8,7.52-16.49,20.13-30.59,36.04-41.35,31.73,12.01,60.73,22.77,96.53,18.54,39.21-4.63,83.89-52.98,108.76-77.98l13.53,21.89c.5,2.64-23.31,17.37-27.8,20.07ZM490.9,841.87c8.97-11.28,14.29,9.18,22.74,13.38l.12,3.18-50.66,55.97c1.67-23.94,12.06-52.73,27.81-72.54ZM493.35,1016.78c-6.11.02-27.63-51.74-28.32-60.08l23.71-21.49c1.66,23.12,11.26,44.05,25.74,63.23l-21.13,18.35ZM541.96,968.8c-18.42-21.8-17.66-53.84-3.82-77.73.72-1.24.65-5.01,3.81-2.27,1.37,1.19,10.07,26.6,10.57,30.01,2.77,19.08-3.14,32.7-10.56,49.99ZM539.49,826.28l-17.72-19.91,19.3-18.34,19.14,19.75-20.72,18.5ZM522.32,711.97l17.18-16.65c3.21-.48,19.04,14.93,19.04,18.31l-17.5,19.96-18.72-21.62ZM539.29,642.4l-24.75-26.39,24.77-31.21c4.49-.97,24.83,26.6,28.44,31.2-2.94,4.18-24.72,27.21-28.46,26.4ZM591.32,1015.01c-4.53,2.31-23.69-13.01-23.35-16.31,13.69-20.21,20.87-40.67,26.31-63.49l22.72,20.16c-6.11,20.61-13.54,41.07-25.69,59.65ZM612.6,909.64c-7.01-5.81-42.48-45.02-44.2-51.24-.92-3.32,14.42-20.28,16.85-20.75,4.4-.85,16.24,21.63,18.19,25.57,7.64,15.41,13.78,32.82,15.62,49.57-3.25.59-4.47-1.51-6.45-3.16ZM740.19,984.79l10.42-19,29.92,5.41c-9.87,10.13-25.01,15.11-40.34,13.58ZM797.07,938.4c-21.08-.71-39.37-9.81-60.59-4.03-18.64,5.08-28.85,23.36-31.18,39.23-4.09,3.16-41.91-21.19-45.49-26.74-.25-27.74.84-55.11-11.41-81.26l45.89,18.41c-3.41,7.27-11.17,11.23-16.14,18.7-6.66,10-9.39,19.65-7.27,31.3,1.18,6.49,6.43,19.68,16.16,18.1,7.4-22.14,38.55-46.01,65.13-47.35,15.75-.79,35.52,8.77,49.61,14.37l-4.71,19.26ZM835.64,940c-.78-18.32,13.09-27.32,33.01-27.18-4.19,14.95-17.02,22.62-33.01,27.18ZM943.89,828.02c-11.34,14.9-11.39,38.93-35.62,43.28-7.48-16.97-17.76-32.16-30.44-46.49l66.06,3.2ZM716.34,800.81c26.8-.96,52.43,6.12,77.06,14.41l-34.01,7.99c-10.99.66-23.33-4.77-31.88-10.55-1.85-1.25-13.39-10.13-11.16-11.85ZM627.31,778.41c38.31,36.32,76.02,82.71,139.55,78.45,24.49-1.64,45.12-11.65,67.45-19.05,14.22,11.38,31.14,23.92,34.34,41.38-6.61,1.01-13.77,1.03-20.29,2.33-6.83,1.36-20.12,7.29-24.46,7.19-12.68-.28-64.29-17.3-79.17-22.28-38.71-12.96-81.58-31.75-114.51-53.77-2.8-1.87-11.83-7.7-13.19-9.4-3.58-4.49,9.2-18.8,10.27-24.85ZM605.03,161.34c-2.3,1.87-3.75,5.78-7.07,7.41l-28.32-29.79,32.01-27.77,22.68,33.08c.64,3.44-15.8,14.21-19.31,17.06ZM634.71,184.82c2.48-1.28,4.54,3.5,4.54,3.97v42.4c-5.26.84-2.95-1.22-4.16-3.5-2.26-4.27-14.51-27.01-14.25-29.24.48-4.14,10.69-10.02,13.87-13.63ZM751.76,395.68c-40.17,20.64-90.2,23.01-127.17,49.91,12.53-70.99,15.23-143.2,83.53-191.96,6.98-4.98,62.42-37.74,66.92-33.64l-3.6,23.25c-37.61,9.83-71.23,28.26-90.3,58.87-19.34,31.05-23.56,64.14-23.13,99.12,1.46,10.28,21.73,3.5,29.93,1.21,61.48-17.21,102.09-75.78,116.66-127.89l32.87-.95c-7.8,47.43-37.43,97.27-85.72,122.07ZM744.81,314.42c-7.32,11.63-21.98,27.68-33.08,36.76-1.36,1.12-8.83,5.92-10.07,4.8,6.03-29.31,23.8-59.08,56.87-70.38,1.3,1.12-11.64,25.51-13.72,28.82ZM808.1,407.18c-.76-2.44.74-2.66,1.8-4.01,4.17-5.28,12.67-11.52,18.04-17.88,21.9-25.97,36.39-57.12,44.41-88.49l13.71,36.82,24.67,28.19c.85,4.2-15.84,11.75-20.03,13.38-.52-5.92.77-12.43-.18-18.26-1.1-6.81-12.52-23.16-21.59-18.28-1.25.67-9.12,21.05-9.97,24.09-8.53,30.65-2.28,51.09,39.15,45.34,19.33-2.68,30.65-13.23,44.86-23.32l19.19,16.65c-45.79,34.68-102.08,5.23-154.05,5.78ZM1008.99,471.24l-46.71-28.05,31.25-17.67,3.54-.04c22.28,19.04,40.64,43.28,42.24,71.3l-30.33-25.54Z"/>
  <path class="cls-2" d="M775.05,219.99l-3.6,23.25c-37.61,9.83-71.23,28.26-90.3,58.87-19.34,31.05-23.56,64.14-23.13,99.12,1.46,10.28,21.73,3.5,29.93,1.21,61.48-17.21,102.09-75.78,116.66-127.89l32.87-.95c-7.8,47.43-37.43,97.27-85.72,122.07-40.17,20.64-90.2,23.01-127.17,49.91,12.53-70.99,15.23-143.2,83.53-191.96,6.98-4.98,62.42-37.74,66.92-33.64Z"/>
  <path class="cls-2" d="M455.71,443.99c-43.55-29.32-102.58-29.18-144.98-59.98-24.47-17.77-43.6-44.82-54.57-70.83-4.26-10.1-10.79-27.6-11.49-38.01-.22-3.36,0-2.03,2.71-2.39,9.45-1.26,20.25,2.85,30.1,1.81,14.9,52,56.08,111.71,118.09,128.25,5.74,1.53,26.62,7.2,28.7,1.72,1.39-3.67.58-21.75.25-26.95-3.23-50.94-27.66-101.76-83.17-124.29-5.82-2.36-26.84-7.23-28.79-8.5-5.21-3.42-1.9-19.58-5.48-24.81,5.6-3.51,60.97,29.53,68.77,35.23,40.66,29.73,54.54,61.32,66.14,105.54,2.64,10.06,16.9,79.46,13.73,83.22Z"/>
  <path class="cls-2" d="M868.66,879.19c-6.61,1.01-13.77,1.03-20.29,2.33-6.83,1.36-20.12,7.29-24.46,7.19-12.68-.28-64.29-17.3-79.17-22.28-38.71-12.96-81.58-31.75-114.51-53.77-2.8-1.87-11.83-7.7-13.19-9.4-3.58-4.49,9.2-18.8,10.27-24.85,38.31,36.32,76.02,82.71,139.55,78.45,24.49-1.64,45.12-11.65,67.45-19.05,14.22,11.38,31.14,23.92,34.34,41.38Z"/>
  <path class="cls-2" d="M211.66,879.19c7.52-16.49,20.13-30.59,36.04-41.35,31.73,12.01,60.73,22.77,96.53,18.54,39.21-4.63,83.89-52.98,108.76-77.98l13.53,21.89c.5,2.64-23.31,17.37-27.8,20.07-39.69,23.87-87.93,42.77-133.54,56.38-8.05,2.4-41.77,13.1-47.05,13.26-6.8.2-34.23-15.1-46.47-10.8Z"/>
  <path class="cls-2" d="M433.71,864.82c-11.15,25.15-13.11,53.8-9.44,80.42l-44.7,29.93c-7.5-11.93-8.51-25.05-21.27-34.23-23.61-16.99-46.91-4.26-73.21-2.57l-5.51-20.7c16.39-3.8,34.68-14.15,52.06-12.72,27.07,2.24,55.41,25.67,63.62,47.78,7.59.89,12.06-6.92,14.07-12.38,5.22-14.14,1.75-25.82-6.51-38.22-4.73-7.09-11.6-11.29-14.99-18.11l45.87-19.21Z"/>
  <path class="cls-2" d="M694.3,884.02c-3.41,7.27-11.17,11.23-16.14,18.7-6.66,10-9.39,19.65-7.27,31.3,1.18,6.49,6.43,19.68,16.16,18.1,7.4-22.14,38.55-46.01,65.13-47.35,15.75-.79,35.52,8.77,49.61,14.37l-4.71,19.26c-21.08-.71-39.37-9.81-60.59-4.03-18.64,5.08-28.85,23.36-31.18,39.23-4.09,3.16-41.91-21.19-45.49-26.74-.25-27.74.84-55.11-11.41-81.26l45.89,18.41Z"/>
  <path class="cls-2" d="M890.69,375.19c-.52-5.92.77-12.43-.18-18.26-1.1-6.81-12.52-23.16-21.59-18.28-1.25.67-9.12,21.05-9.97,24.09-8.53,30.65-2.28,51.09,39.15,45.34,19.33-2.68,30.65-13.23,44.86-23.32l19.19,16.65c-45.79,34.68-102.08,5.23-154.05,5.78-.76-2.44.74-2.66,1.8-4.01,4.17-5.28,12.67-11.52,18.04-17.88,21.9-25.97,36.39-57.12,44.41-88.49l13.71,36.82,24.67,28.19c.85,4.2-15.84,11.75-20.03,13.38Z"/>
  <path class="cls-2" d="M274.04,407.18c-53.72.69-106.94,27.26-155.95-5.59l22.91-16.79c12.92,18.88,66.73,36.3,82.49,14.32,8.78-12.24-.65-50.88-13.64-61.59-19.15,5.34-19.52,22.73-18.4,37.66l-20.04-10.56,28.96-38.47,9.41-29.36c8.31,30.48,23.21,63.09,44.38,88.52,5.09,6.11,13.86,12.52,18.06,17.85,1.07,1.35,2.57,1.58,1.8,4.01Z"/>
  <path class="cls-2" d="M538.35,403.98c-4.35-8.03-11.63-14.31-14.82-23.1-6.82-18.81-1-36.61,5.13-54.92,2.97-8.89,6.7-20.6,13.31-27.58,10.29,28.06,28.08,57.15,14.46,86.99-1.52,3.33-13.59,21.31-18.08,18.6Z"/>
  <path class="cls-2" d="M486.92,328.79c-4.85.47-2.9-.09-3.69-2.36-12.01-34.51-11.23-61.6,5.04-94.95.95-1.96-.81-4.25,3.22-3.48l26.34,31.45c-11.55,22.52-27.03,44.41-30.91,69.35Z"/>
  <path class="cls-2" d="M598.86,328.78c-1.39.92-3.9-3.43-4.56-4.8-4.9-10.15-7.65-22.61-12.91-33.54-4.88-10.13-11.88-19.52-16.73-29.66l25.07-34.39c2.46-1.45,8.94,14.33,9.67,16.34,10.24,28.06,8.63,57.99-.54,86.05Z"/>
  <path class="cls-2" d="M738.37,195.98c3.96-25.38,4.55-49.91-5.1-74.48l22.23-6.97c5.78,1.42,15.9,40.58,17.19,47.51,1.05,5.66,4.72,17.69-.54,21-7.29,4.58-25.61,6.98-33.77,12.94Z"/>
  <path class="cls-2" d="M347.31,120.93c-1.05,12.03-6.47,23.71-7.26,35.79-.88,13.41,3.38,26.03,2.84,39.25-5.2-5.01-35.59-11.08-35.7-16.65,2.4-22.29,8.32-43.83,16.47-64.94l23.65,6.55Z"/>
  <path class="cls-2" d="M266.53,205.73l3.84,31.84-64.23,1.6,7.22-37.7c17.89-2.49,35.76,1.29,53.17,4.26Z"/>
  <path class="cls-2" d="M875.99,239.18l-62.4-.75c-2.52-1.48-1.51-2.47-1.39-4.36.58-9.37,2.4-19.01,3.38-28.35,17.48-2.53,35.31-6.74,53.2-4.24l7.21,37.7Z"/>
  <path class="cls-2" d="M934.73,648.8c20.78-1.42,40.3-9.54,56.69-20.18,20.67-13.41,30.95-31.1,46.05-48.63,3.43,36.77-33.38,76-76.17,78.38-9.11.51-24.79.14-26.57-9.57Z"/>
  <path class="cls-2" d="M44.67,496.79c-1.49-28.34,18.8-52.12,40.4-71.31l3.54.04,31.25,17.67c-28.84,14.52-52.8,32.26-75.19,53.6Z"/>
  <path class="cls-2" d="M1039.31,496.78l-30.33-25.54-46.71-28.05,31.25-17.67,3.54-.04c22.28,19.04,40.64,43.28,42.24,71.3Z"/>
  <path class="cls-2" d="M591.32,1015.01c-4.53,2.31-23.69-13.01-23.35-16.31,13.69-20.21,20.87-40.67,26.31-63.49l22.72,20.16c-6.11,20.61-13.54,41.07-25.69,59.65Z"/>
  <path class="cls-2" d="M488.75,935.2c1.66,23.12,11.26,44.05,25.74,63.23l-21.13,18.35c-6.11.02-27.63-51.74-28.32-60.08l23.71-21.49Z"/>
  <path class="cls-2" d="M48.29,581.61c22.31,39.75,48.3,56.26,96.66,66.97,2.52.56,5.1-1.02,4.29,2.59-11.81,12.19-36.47,6.83-51.33,1.59-30.91-10.9-52.28-41.78-53.27-70.36l3.65-.8Z"/>
  <path class="cls-2" d="M539.29,163.98c5.47-1.19,24.45,26.19,30.1,29.81l-28.33,32.56-27.98-31.15,26.21-31.22Z"/>
  <path class="cls-2" d="M943.89,828.02c-11.34,14.9-11.39,38.93-35.62,43.28-7.48-16.97-17.76-32.16-30.44-46.49l66.06,3.2Z"/>
  <path class="cls-2" d="M539.3,584.8c4.49-.97,24.83,26.6,28.44,31.2-2.94,4.18-24.72,27.21-28.46,26.4l-24.75-26.39,24.77-31.21Z"/>
  <path class="cls-2" d="M174.93,871.2c-23.43-2.4-27.61-27.48-34.85-43.18,1.62-2.01,49.83-3.89,56.06-3.3,2.77.26,4.55.16,6.3,2.48-11.78,12.97-23.43,27.52-27.51,44Z"/>
  <polygon class="cls-2" points="480.51 111.21 514.01 137.56 485.76 167.07 458.08 145.61 480.51 111.21"/>
  <path class="cls-2" d="M605.03,161.34c-2.3,1.87-3.75,5.78-7.07,7.41l-28.32-29.79,32.01-27.77,22.68,33.08c.64,3.44-15.8,14.21-19.31,17.06Z"/>
  <polygon class="cls-2" points="539.23 463.22 563.93 494.37 541.07 527.16 518.27 494.39 539.23 463.22"/>
  <path class="cls-2" d="M463.09,914.4c1.67-23.94,12.06-52.73,27.81-72.54,8.97-11.28,14.29,9.18,22.74,13.38l.12,3.18-50.66,55.97Z"/>
  <path class="cls-2" d="M679.64,224.79c.84-22.82-1.44-45.83-8.88-67.8l27.19-18.6c9.4,28.76,2.08,62.57-18.31,86.4Z"/>
  <path class="cls-2" d="M619.06,912.8c-3.25.59-4.47-1.51-6.45-3.16-7.01-5.81-42.48-45.02-44.2-51.24-.92-3.32,14.42-20.28,16.85-20.75,4.4-.85,16.24,21.63,18.19,25.57,7.64,15.41,13.78,32.82,15.62,49.57Z"/>
  <path class="cls-2" d="M103.37,306.39c.03,17.62,8.72,34.27,16.38,50.23l-28.23,17.03c-11.04-18.1-15.02-38.18-2.53-56.62,1.51-2.23,11.26-13.51,14.38-10.65Z"/>
  <path class="cls-2" d="M411.5,156.23c-7.49,21.11-8.08,41.22-8.99,62.97-.08,1.93,1.38,5.96-1.81,5.57-16.92-25.65-27.12-57.32-15.63-86.38l26.43,17.84Z"/>
  <path class="cls-2" d="M991.58,375.19l-27.3-18.7c5.11-16.5,14.72-32.66,14.48-50.09,2.52-2.57,13.87,11.37,15.12,13.2,12.51,18.38,7.22,37.18-2.31,55.59Z"/>
  <path class="cls-2" d="M279.55,117.59l-11.02,54.39c-12.87-4.05-26.75-5.26-40.35-4.81,9.07-20.75,26.13-42.47,51.37-49.58Z"/>
  <path class="cls-2" d="M853.97,165.56l-40.37,4.82-11.01-52.8c25.35,7.02,40.87,27.95,51.37,47.97Z"/>
  <path class="cls-2" d="M541.96,888.81c1.37,1.19,10.07,26.6,10.57,30.01,2.77,19.08-3.14,32.7-10.56,49.99-18.42-21.8-17.66-53.84-3.82-77.73.72-1.24.65-5.01,3.81-2.27Z"/>
  <path class="cls-2" d="M380.47,357.59c-28.44-17.1-45.99-43.96-56.87-71.99,33.24,11.68,53.59,41.8,56.87,71.99Z"/>
  <path class="cls-2" d="M758.53,285.6c1.3,1.12-11.64,25.51-13.72,28.82-7.32,11.63-21.98,27.68-33.08,36.76-1.36,1.12-8.83,5.92-10.07,4.8,6.03-29.31,23.8-59.08,56.87-70.38Z"/>
  <path class="cls-2" d="M448.39,88.81l-22.94,33.55-26.51-16.11c-1.93-2.4,19.51-29.59,23.11-30.1l26.34,12.66Z"/>
  <path class="cls-2" d="M683.2,106.24l-26.51,16.11c-2.82-5.62-22.28-28.66-20.95-32.52.73-2.12,23.68-13.98,25.59-13.15,3.29,4,24.38,26.42,21.86,29.56Z"/>
  <path class="cls-2" d="M932.86,331.99c-15.67-14.8-23.01-32.45-20.16-52.79l30.86,10.53-10.71,42.26Z"/>
  <path class="cls-2" d="M169.43,280.78c1.94,18-4.08,37.72-20.16,49.6l-10.24-41.69,30.4-7.91Z"/>
  <path class="cls-2" d="M793.39,815.22l-34.01,7.99c-10.99.66-23.33-4.77-31.88-10.55-1.85-1.25-13.39-10.13-11.16-11.85,26.8-.96,52.43,6.12,77.06,14.41Z"/>
  <path class="cls-2" d="M367.64,800.82c-20.43,24.13-48.13,26.17-78.9,15.97,2-2.7,8.88-4.86,12.35-6,20.97-6.92,44.28-9.55,66.55-9.96Z"/>
  <polygon class="cls-2" points="541.07 788.03 560.21 807.78 539.49 826.28 521.77 806.37 541.07 788.03"/>
  <path class="cls-2" d="M539.49,695.32c3.21-.48,19.04,14.93,19.04,18.31l-17.5,19.96-18.72-21.62,17.18-16.65Z"/>
  <path class="cls-2" d="M602.53,722.4c-1.9,18.46-7.03,37.38-19.25,52.77l-13.55-14.93,32.8-37.84Z"/>
  <path class="cls-2" d="M942.05,250.38l-26.71-6.3-2.63-32.09c2.26-2.22,18.75,14.09,20.6,16.43,5.26,6.65,8.79,13.66,8.75,21.96Z"/>
  <path class="cls-2" d="M497.91,535.2l14.33,21.35c-.16,1.49-16.63,20.35-19.27,23.02-1.12,1.13.07,3.02-4.19,2.03-3.65-12.89-1.19-32.35,5.05-44.38,1.12-2.16.18-2.52,4.08-2.02Z"/>
  <path class="cls-2" d="M171.28,212l-3.76,33.51-27.42,6.47c1.47-15.97,13.44-34.54,31.18-39.99Z"/>
  <path class="cls-2" d="M477.77,722.4l34.52,39.22-13.47,11.97c-2.59.51-3.12-1.22-4.15-2.73-9.6-14.05-13.26-32.56-16.89-48.46Z"/>
  <path class="cls-2" d="M587.85,535.2c3.57,15.22,9.17,30.87,5.5,46.39-5.09-3.88-24-21.69-23.81-26.44,4.38-5.23,8.76-12.36,13.13-17.29,1.58-1.78,1.84-3.31,5.18-2.66Z"/>
  <path class="cls-2" d="M321.37,966.02c6.79-.6,9.89-1.09,14.08,4.44,19.9,26.3-25.17,13.34-33.84.74-.07-2.05,16.92-4.93,19.76-5.18Z"/>
  <path class="cls-2" d="M639.25,231.19c-5.26.84-2.95-1.22-4.16-3.5-2.26-4.27-14.51-27.01-14.25-29.24.48-4.14,10.69-10.02,13.87-13.63,2.48-1.28,4.54,3.5,4.54,3.97v42.4Z"/>
  <path class="cls-2" d="M446.53,231.17c-3.31-.83-3.53-7.9-3.72-10.33-.96-12.56.75-25.2,1.93-37.66l18.15,15.43c-6.58,10.36-12.91,21-16.36,32.56Z"/>
  <path class="cls-2" d="M740.19,984.79l10.42-19,29.92,5.41c-9.87,10.13-25.01,15.11-40.34,13.58Z"/>
  <path class="cls-2" d="M868.65,912.82c-4.19,14.95-17.02,22.62-33.01,27.18-.78-18.32,13.09-27.32,33.01-27.18Z"/>
  <path class="cls-2" d="M248.36,939.99c-16.51-2.51-31.06-12.46-34.86-27.18,22.41.58,29.73,9.47,34.86,27.18Z"/>
  <path class="cls-2" d="M597.04,39.2c2.75-1.88,31.13,10.4,31.16,11.98l-17.26,10.37c-6.67-6.34-10.42-14.46-13.9-22.35Z"/>
  <path class="cls-2" d="M485.1,39.2l-12.89,22.38-18.28-10.4c.04-1.59,28.43-13.86,31.16-11.98Z"/>
  <path class="cls-2" d="M376.81,67.99c2.07,1.74-10.93,17.29-12.83,20.11l-18.35-4.13c6.98-9.17,18.65-14.95,31.19-15.97Z"/>
  <path class="cls-2" d="M736.52,83.97l-18.42,4.13-12.76-20.11c3.8-2.94,29.52,10.04,31.19,15.97Z"/>
  <path class="cls-2" d="M584.18,418.39c.7,3.09-.81,30.62-4.57,30.37l-11.38-13.57c4.94-5.7,8.98-12.8,15.95-16.8Z"/>
  <path class="cls-2" d="M499.79,447.18l-1.83-28.79,16.07,15.18c-.52,2.22-11.41,16.41-14.25,13.61Z"/>
  <path class="cls-2" d="M494.28,655.21c1.87-1.65,15.78,10.52,16.31,12.31,1.26,4.18-5.32,7.13-8.06,10.05l-8.25-22.36Z"/>
  <polygon class="cls-2" points="587.85 653.6 579.61 677.56 569.55 668.8 587.85 653.6"/>
</svg>