<?xml version="1.0" encoding="UTF-8"?>
<svg id="Layer_1" data-name="Layer 1" xmlns="http://www.w3.org/2000/svg" viewBox="0 0 1080 1080">
  <defs>
    <style>
      .cls-1 {
        fill: #27442c;
        stroke: #000;
        stroke-miterlimit: 10;
        stroke-width: 4px;
      }

      .cls-2 {
        fill: #fff;
      }
    </style>
  </defs>
  <path class="cls-1" d="M994.7,1009.44c-.42-5.3,20.35-10.96,21.28-14.47.27-1.03,11.98-13.9,14.16-17.21,18.18-27.49,27.64-56.46,29.41-88.26V191.89c-4.93-94.08-88.63-172.51-197.58-177.89l-643.6.07C111.24,20.23,28.19,96.08,22.32,189.08l.08,707.38c6.45,91.74,92.76,164.71,197.58,169.45l637.15.07c46.57-2.09,89.51-15.32,125.74-40.81M896.59,0c82.5,15.99,149.83,69.6,173.38,140.63,3.83,11.55,5.24,23.58,8.88,35.15v731.24c-4.28,11.43-5.21,23.55-8.88,35.15-22.26,70.43-96.61,126.51-179.19,137.67l-699.84.16C83.98,1065.23,3.24,982.41,1.44,888.02c1.02-236.68-2.14-473.55,1.61-710.12C13.5,90.24,86.87,18.87,185.29,0h711.29Z"/>
  <path class="cls-2" d="M982.88,1025.17c-36.23,25.49-79.17,38.72-125.74,40.81l-637.15-.07c-104.83-4.74-191.14-77.71-197.58-169.45l-.08-707.38C28.19,96.08,111.24,20.23,218.37,14.08l643.6-.07c108.95,5.38,192.65,83.81,197.58,177.89v697.61c-1.77,31.8-11.23,60.77-29.41,88.26-2.19,3.31-13.89,16.17-14.16,17.21M447.39,995.61c7.6.74,16.42-.54,24.19,0l2.19-3.27c-3.58-6.14-7.62-13.23-12.71-18.49-13.27-13.73-34.21-10.23-48.35-23.95l31.55-20.3c3.35-.6,1.82.45,2.46,1.87,6.8,15.16,11.69,28.71,21.76,42.94,4.4,6.21,15.3,20.87,24.07,21.33,11.73.63,38.33-20.69,46.99-28.15,13.09,7.36,38.45,33.28,55.03,26.96,6.23-2.37,21.17-24.22,24.87-30.34,6.68-11.03,12.18-22.61,15.87-34.69l33.84,18.97c-10.33,13.44-35.71,13.25-46.82,22.46-3.52,2.92-16.4,21.5-12.86,24.65,25.97,1.52,59.57-6.26,79.06-21.78,3.18-2.53,11.46-13.16,12.42-13.39,5.31-1.28,17.72,1.87,25.45,1.39,28.49-1.77,50.82-19.01,63.72-40.06,39.5.24,72.66-25.04,76.09-59.51,18.72-4.49,36.65-14.59,45.19-30.22,5.28-9.65,6.44-19.84,12.93-29.51,14.27-21.25,40.78-26.65,34.43-55.9-.68-3.13-3.23-9.27-7.95-8.2-1.05.24-11.18,11.08-14.98,13.66-30.86,20.92-56.91,7.23-90.12,8.62-10.75.45-35.5,7.82-41.75,7.09-3.32-.38-17.65-8.95-22.92-11.06-38.26-15.24-87.1-14.65-118.17-33.37-32.65-19.68-27.83-40.34-36.09-69.78-4.24-15.11-12.03-29.27-17.38-44.05,6.54-12.15,13.42-22.63,14.67-36.46,2.69-29.66-1.94-39.12,17.01-66.73,30.81-44.92,96.77-58.94,134.59-12.1,3.96,4.9,12.93,22.84,15.26,24.66,1,.78,1.84,1.48,3.3,1.47l4.48-.31c8.52-2.26,8.17-24.55,7.16-31.04-2.4-15.32-13.37-25.31-26.99-34.12,61.99,1.95,134.47,23.97,173.21,68.35,2.72,3.11,12.95,14.22,12.08,17.13-17.33,18.73-28.09,42.57-50.63,57.24.36-6.1,4.92-12.22,6.51-18.23,7.57-28.5-10.15-57.38-36.49-73.75-9.1-5.66-26.65-15.34-26.75,1.02-.14,23.34,26.83,32.3,31.01,50.11,4.53,19.28-7.98,33.33-22.65,46.08-11.8-3.54-20.25-14.09-15.28-24.87,3.2-1.95,15.77,9.08,23.95.5,10.71-11.22-1.62-30.37-17.14-32.54-27.09-3.79-43.99,19.87-42.32,41.13,1.56,19.88,16.7,34.28,36.29,42.88-2.1,48.2,63.81,50.2,100.8,33.1,42.28-19.55,65.83-60.94,57.62-102.32-1.3-6.54-6.17-15.42-6.17-21.45,0-7.67,7.2-20.09,8.17-29.55,4.06-39.33-17.78-68-48.2-94.4,33.12-43.64,17.94-91.92-33.24-117.21,1.63-41.19-28.46-75-74.64-83.28-13.5-40.8-51.24-79.47-103.34-80.06-16.26-27.21-42.23-42.4-78.44-40.54-4.97.25-13.22,3.07-17.44,2.53-1.84-.23-24.68-15.54-30.7-18.25-18.68-8.42-43.77-14.28-64.89-12.51-14.06,1.18-11.79,13.64-10.21,23.14,3,18.04,12.97,34.19,23.99,49.27l-33.04,26.09-33.01-27.4c12.57-14.6,22.99-34.87,24.12-53.45.44-7.17,1.39-16.45-8.76-17.64-21.88-2.56-51.73,4.96-70.73,14.41-5.43,2.7-23.87,15.84-26.5,16.32-3.45.63-9.71-2.25-14.16-2.52-39.35-2.38-62.84,12.14-83.05,40.06-53.07,2.64-86.1,38.55-102.46,79.42-45.95,11.76-75.07,41.18-74.53,84.08-15.08,10.7-30.03,18.92-39.97,34.06-17.96,27.35-10.73,57.73,7.05,83.49-30.57,27.75-53.14,56.48-47.98,97.09,1.03,8.07,8.89,21.38,9.1,27.11.12,3.14-6.73,17.41-7.46,23.83-7.18,62.65,57.38,127.87,131.34,106.07,21.52-6.34,28.36-21.99,28.4-40.64,35.89-9.45,49.73-57.82,18.29-77.55-23.51-14.75-55,2.18-43.31,25.17,6.66,13.09,19.84-1.04,24.87,2.14,6.19,10.51-4.35,21.07-15.2,24.52-14.49-14.48-29.2-29.48-20.45-49.8,5.56-12.9,20.06-19.59,25.52-32.59,9.25-22.01,1.11-28.47-21.11-15.59-30.09,17.45-45.89,47.08-37.04,78.18.53,1.85,8.81,16.09,2.04,12.29-17.92-10.07-34.05-40.95-46.69-56.26,35.13-57.12,112.86-79.41,182.99-85.1,2.07.3-.92,2.32-1.56,2.86-10.86,9.1-18.13,12.41-22.65,26.66-3.58,11.28-5.89,37.76,13.5,36.36,21.7-51.76,79.25-74.46,130.9-34.24,17.7,13.78,33.75,42.75,35.43,63.31.54,6.61-1.71,11.44-1.71,16.86,0,15.61,9.64,31.38,17.32,44.99-6.85,12.2-13.96,26.94-17.99,40.09-6.37,20.81-3.5,39.11-19.5,57.53-29.68,34.15-75.6,27.98-117.19,41.26-14.38,4.59-27.68,11.13-40.79,17.9-38.32-16.07-88.45,5.77-123.23-10.61-9.47-4.46-17.39-12.53-25.21-18.84-4.89-.95-8.9,13.99-8.81,17.46.53,19.79,27.31,31.78,36.86,46.72,4.96,7.77,6.76,17.7,10.8,25.74,8.94,17.79,25.18,29.06,46.8,33.72,4.7,35.05,35.91,59.54,76.57,59.8,17.79,29.64,48.57,45.36,87.52,38.91,15.66,17.27,42.54,32.43,68.11,34.93Z"/>
  <path class="cls-1" d="M962.88,415.34c33.12-43.64,17.94-91.92-33.24-117.21,1.63-41.19-28.46-75-74.64-83.28-13.5-40.8-51.24-79.47-103.34-80.06-16.26-27.21-42.23-42.4-78.44-40.54-4.97.25-13.22,3.07-17.44,2.53-1.84-.23-24.68-15.54-30.7-18.25-18.68-8.42-43.77-14.28-64.89-12.51-14.06,1.18-11.79,13.64-10.21,23.14,3,18.04,12.97,34.19,23.99,49.27l-33.04,26.09-33.01-27.4c12.57-14.6,22.99-34.87,24.12-53.45.44-7.17,1.39-16.45-8.76-17.64-21.88-2.56-51.73,4.96-70.73,14.41-5.43,2.7-23.87,15.84-26.5,16.32-3.45.63-9.71-2.25-14.16-2.52-39.35-2.38-62.84,12.14-83.05,40.06-53.07,2.64-86.1,38.55-102.46,79.42-45.95,11.76-75.07,41.18-74.53,84.08-15.08,10.7-30.03,18.92-39.97,34.06-17.96,27.35-10.73,57.73,7.05,83.49-30.57,27.75-53.14,56.48-47.98,97.09.64,5.04,3.94,12.11,6.39,18.11,1.19.14,2.2.74,2.47,1.07,1.49.33,3,.56,4.51.85.07.01.13.03.2.04,7.29.49,14.53.74,21.85.42,1.73-.08,3.46-.18,5.18-.3,1.13-.08,2.25-.18,3.38-.29,2.94-.31,2.21-.21-2.19.28,2.41.32,5.89-.8,8.39-1.41,1.5-1.67,3.23-3.18,5.13-4.46,1.15-.77,2.3-1.42,3.45-1.99,38.57-46.43,108.69-65.37,172.52-70.55,2.07.3-.92,2.32-1.56,2.86-10.86,9.1-18.13,12.41-22.65,26.66-3.58,11.28-5.89,37.76,13.5,36.36,21.7-51.76,79.25-74.46,130.9-34.24,17.7,13.78,33.75,42.75,35.43,63.31.54,6.61-1.71,11.44-1.71,16.86,0,15.61,9.64,31.38,17.32,44.99-6.85,12.2-13.96,26.94-17.99,40.09-6.36,20.81-3.5,39.12-19.5,57.53-29.68,34.15-75.6,27.98-117.19,41.26-14.38,4.59-27.68,11.13-40.79,17.9-38.32-16.07-88.45,5.77-123.23-10.61-9.47-4.46-17.39-12.53-25.21-18.84-4.89-.95-8.9,13.99-8.81,17.46.53,19.79,27.31,31.78,36.86,46.72,4.96,7.77,6.76,17.7,10.8,25.74,8.94,17.79,25.18,29.06,46.8,33.72,4.7,35.05,35.91,59.54,76.57,59.8,17.79,29.64,48.57,45.36,87.52,38.91,15.66,17.27,42.54,32.43,68.11,34.93,7.6.74,16.42-.54,24.19,0l2.19-3.27c-3.58-6.14-7.62-13.23-12.71-18.49-13.27-13.73-34.21-10.23-48.35-23.95l31.55-20.3c3.35-.6,1.82.45,2.46,1.87,6.8,15.16,11.69,28.71,21.76,42.94,4.4,6.21,15.3,20.87,24.07,21.33,11.73.63,38.33-20.69,46.99-28.15,13.09,7.36,38.45,33.28,55.03,26.96,6.23-2.37,21.17-24.22,24.87-30.34,6.68-11.03,12.18-22.61,15.87-34.69l33.84,18.97c-10.33,13.44-35.71,13.25-46.82,22.46-3.52,2.92-16.4,21.5-12.86,24.65,25.97,1.52,59.57-6.26,79.06-21.78,3.18-2.53,11.46-13.16,12.42-13.39,5.31-1.28,17.72,1.87,25.45,1.39,28.49-1.77,50.82-19.01,63.72-40.06,39.5.24,72.66-25.04,76.09-59.51,18.72-4.49,36.65-14.59,45.19-30.22,5.28-9.65,6.44-19.84,12.93-29.51,14.27-21.25,40.78-26.65,34.43-55.9-.68-3.13-3.23-9.27-7.95-8.2-1.05.24-11.18,11.08-14.98,13.66-30.86,20.92-56.91,7.23-90.12,8.62-10.75.45-35.5,7.82-41.75,7.09-3.32-.38-17.65-8.95-22.92-11.06-38.26-15.24-87.1-14.65-118.17-33.37-32.65-19.68-27.83-40.34-36.09-69.78-4.24-15.11-12.03-29.27-17.38-44.05,6.54-12.15,13.42-22.63,14.67-36.46,2.69-29.66-1.94-39.12,17.01-66.73,30.81-44.92,96.77-58.94,134.59-12.1,3.96,4.9,12.93,22.84,15.26,24.66,1,.78,1.84,1.48,3.3,1.47l4.48-.31c8.52-2.26,8.17-24.55,7.16-31.04-2.4-15.32-13.37-25.31-26.99-34.12,61.99,1.95,134.47,23.97,173.21,68.35,1.72,1.97,6.44,7.13,9.46,11.4,2.55.4,5.1.81,7.66,1.2,1.42.21,2.83.42,4.25.62.05,0,2.56.3,3.67.45.58.05,1.1.1,1.28.12,1.47.13,2.94.23,4.42.32.02,0,.04,0,.06,0,4.75-.1,9.59-.23,14.56-.33,1.08-.28,2.42-.75,3.49-.82.77-.45,1.71-.89,2.58-1.29,1.73-7.51,6.78-17.35,7.59-25.18,4.06-39.33-17.78-68-48.2-94.4ZM925.63,334.69c2.21-2.26,12.19,10,13.29,11.6,11,16.15,6.35,32.68-2.03,48.85l-23.99-16.44c4.49-14.5,12.94-28.7,12.73-44.02ZM885.66,266.16c4.62,5.84,7.72,12.01,7.69,19.3l-23.47-5.53-2.31-28.2c1.99-1.95,16.48,12.38,18.1,14.44ZM867.56,310.78l27.13,9.26-9.41,37.14c-13.77-13.01-20.22-28.52-17.71-46.4ZM828.95,242.48l6.34,33.13-54.84-.66c-2.22-1.3-1.33-2.17-1.22-3.83.51-8.23,2.11-16.71,2.97-24.92,15.36-2.22,31.03-5.92,46.76-3.72ZM815.94,210.92l-35.48,4.24-9.67-46.4c22.28,6.17,35.92,24.57,45.15,42.16ZM744.5,207.83c.92,4.98,4.15,15.55-.48,18.45-6.41,4.03-22.51,6.13-29.68,11.37,3.48-22.31,4-43.86-4.48-65.46l19.54-6.12c5.08,1.25,13.97,35.67,15.1,41.76ZM712.71,139.2l-16.19,3.63-11.22-17.67c3.34-2.59,25.95,8.82,27.41,14.04ZM678.82,187.03c8.26,25.27,1.83,54.99-16.09,75.93.74-20.06-1.26-40.28-7.8-59.59l23.89-16.34ZM624.14,144.36c.64-1.87,20.81-12.28,22.49-11.56,2.89,3.52,21.42,23.22,19.22,25.98l-23.3,14.16c-2.48-4.94-19.58-25.19-18.41-28.58ZM617.52,110.39l-15.17,9.11c-5.86-5.57-9.16-12.71-12.22-19.65,2.42-1.65,27.36,9.14,27.39,10.53ZM565.83,235.73l-24.89,28.62-24.59-27.38,23.03-27.44c4.81-1.04,21.49,23.02,26.45,26.2ZM577.5,538.12c1.39-1.57,1.62-2.91,4.55-2.34,3.14,13.38,8.06,27.13,4.83,40.77-4.47-3.41-21.09-19.07-20.93-23.24,3.85-4.6,7.7-10.86,11.54-15.19ZM564.81,447.89c4.35-5.01,7.89-11.25,14.02-14.77.61,2.72-.71,26.91-4.02,26.69l-10-11.93ZM582.05,639.84l-7.24,21.06-8.84-7.71,16.08-13.36ZM594.96,700.31c-1.67,16.23-6.18,32.86-16.92,46.38l-11.91-13.12,28.83-33.25ZM591.73,354.37c-1.22.81-3.43-3.02-4.01-4.22-4.31-8.92-6.72-19.87-11.35-29.48-4.29-8.9-10.44-17.16-14.7-26.07l22.04-30.22c2.16-1.27,7.86,12.59,8.5,14.36,9,24.66,7.59,50.97-.48,75.63ZM539.33,472.52l21.71,27.38-20.09,28.82-20.04-28.8,18.42-27.39ZM530.03,351.89c2.61-7.81,5.89-18.1,11.7-24.24,9.04,24.66,24.68,50.23,12.71,76.45-1.33,2.92-11.95,18.73-15.89,16.35-3.82-7.06-10.22-12.58-13.03-20.3-5.99-16.53-.88-32.17,4.5-48.26ZM498.67,574.77c-.99,1,.06,2.65-3.68,1.79-3.21-11.33-1.04-28.43,4.44-39.01.99-1.9.16-2.22,3.58-1.77l12.6,18.76c-.14,1.31-14.62,17.88-16.94,20.23ZM507.07,660.9l-7.25-19.65c1.64-1.45,13.87,9.25,14.34,10.82,1.1,3.68-4.68,6.27-7.09,8.83ZM515.65,734.77l-11.84,10.52c-2.28.45-2.74-1.07-3.65-2.4-8.43-12.35-11.66-28.61-14.85-42.59l30.34,34.47ZM504.66,458.43l-1.61-25.3,14.13,13.34c-.46,1.95-10.03,14.42-12.52,11.96ZM493.35,354.38c-4.27.41-2.55-.08-3.24-2.08-10.56-30.33-9.87-54.14,4.43-83.45.84-1.72-.71-3.73,2.83-3.06l23.15,27.64c-10.15,19.79-23.76,39.03-27.17,60.95ZM491.75,99.86l-11.32,19.67-16.06-9.14c.04-1.4,24.99-12.18,27.39-10.53ZM436.33,132.33l23.15,11.13-20.16,29.49-23.3-14.16c-1.7-2.11,17.15-26,20.31-26.45ZM403.83,187.04l23.23,15.68c-6.58,18.55-7.1,36.23-7.9,55.35-.07,1.7,1.21,5.23-1.59,4.9-14.87-22.55-23.83-50.38-13.74-75.92ZM396.58,125.16c1.82,1.53-9.61,15.2-11.28,17.67l-16.13-3.63c6.14-8.06,16.39-13.14,27.41-14.04ZM349.86,165.94l20.79,5.75c-.93,10.57-5.68,20.84-6.38,31.46-.77,11.79,2.97,22.88,2.49,34.5-4.57-4.4-31.28-9.73-31.38-14.63,2.11-19.59,7.31-38.52,14.48-57.08ZM311.09,168.76l-9.68,47.8c-11.31-3.56-23.51-4.63-35.46-4.23,7.97-18.24,22.97-37.32,45.15-43.58ZM252.93,242.48c15.72-2.19,31.43,1.14,46.73,3.74l3.37,27.99-56.45,1.41,6.35-33.13ZM215.94,251.73l-3.3,29.46-24.1,5.69c1.3-14.03,11.81-30.35,27.4-35.14ZM214.32,312.18c1.71,15.82-3.59,33.16-17.72,43.59l-9-36.64,26.72-6.95ZM143.62,344.05c1.33-1.96,9.9-11.87,12.64-9.36.03,15.49,7.66,30.12,14.39,44.15l-24.81,14.97c-9.7-15.91-13.2-33.56-2.22-49.76ZM104.67,502.03c-1.31-24.91,16.53-45.81,35.5-62.67l3.11.03,27.47,15.53c-25.35,12.76-46.4,28.35-66.08,47.11ZM306.25,423.27c-47.21.6-93.99,23.96-137.06-4.91l20.14-14.76c11.35,16.6,58.65,31.91,72.5,12.58,7.71-10.76-.58-44.72-11.99-54.13-16.83,4.69-17.16,19.97-16.17,33.1l-17.61-9.28,25.45-33.81,8.27-25.8c7.3,26.79,20.4,55.45,39,77.8,4.47,5.37,12.18,11.01,15.88,15.69.94,1.19,2.25,1.39,1.58,3.53ZM465.92,455.62c-38.28-25.77-90.16-25.65-127.42-52.72-21.5-15.62-38.32-39.39-47.96-62.25-3.75-8.88-9.49-24.26-10.1-33.41-.2-2.95,0-1.78,2.38-2.1,8.31-1.1,17.79,2.51,26.46,1.59,13.09,45.7,49.29,98.18,103.79,112.72,5.05,1.35,23.39,6.33,25.22,1.51,1.22-3.22.51-19.11.22-23.69-2.84-44.77-24.31-89.43-73.1-109.24-5.11-2.07-23.59-6.35-25.3-7.47-4.58-3.01-1.67-17.21-4.82-21.8,4.92-3.08,53.58,25.95,60.44,30.96,35.73,26.13,47.93,53.89,58.13,92.76,2.32,8.84,14.86,69.83,12.06,73.14ZM349.81,316.42c29.21,10.26,47.1,36.74,49.98,63.27-24.99-15.03-40.42-38.64-49.98-63.27ZM457.85,268.58c-2.91-.73-3.11-6.94-3.27-9.08-.84-11.04.66-22.15,1.69-33.1l15.95,13.56c-5.78,9.11-11.35,18.46-14.38,28.62ZM468,193.38l19.71-30.23,29.45,23.16-24.83,25.93-24.33-18.86ZM330.03,777.98c18.43-6.08,38.92-8.4,58.49-8.76-17.95,21.21-42.3,23-69.34,14.03,1.76-2.37,7.8-4.27,10.86-5.28ZM219.15,831.08c-20.59-2.11-24.26-24.15-30.63-37.95,1.42-1.77,43.8-3.42,49.27-2.9,2.44.23,4,.14,5.53,2.18-10.35,11.4-20.6,24.19-24.18,38.67ZM253.04,867.65c19.69.51,26.12,8.33,30.64,23.88-14.51-2.21-27.3-10.95-30.64-23.88ZM330.49,918.97c-.06-1.8,14.87-4.33,17.37-4.55,5.97-.53,8.69-.96,12.37,3.91,17.49,23.11-22.12,11.72-29.74.65ZM438.29,896.16l-39.29,26.31c-6.59-10.49-7.48-22.01-18.69-30.08-20.75-14.93-41.23-3.74-64.34-2.26l-4.85-18.19c14.41-3.34,30.48-12.44,45.75-11.18,23.79,1.97,48.7,22.56,55.91,41.99,6.67.78,10.6-6.08,12.37-10.88,4.59-12.43,1.54-22.69-5.72-33.59-4.15-6.23-10.2-9.92-13.17-15.91l40.32-16.88c-9.8,22.1-11.52,47.28-8.3,70.68ZM450.98,786.41c-34.88,20.98-77.28,37.59-117.36,49.55-7.07,2.11-36.71,11.52-41.35,11.65-5.98.17-30.08-13.27-40.84-9.49,6.61-14.49,17.7-26.88,31.67-36.34,27.89,10.56,53.37,20.01,84.84,16.3,34.46-4.07,73.73-46.56,95.59-68.54l11.89,19.24c.44,2.32-20.48,15.26-24.43,17.64ZM496.85,805.3c7.88-9.91,12.56,8.07,19.98,11.76l.1,2.8-44.53,49.19c1.47-21.04,10.6-46.35,24.44-63.75ZM499,959.03c-5.37.02-24.28-45.47-24.89-52.8l20.84-18.89c1.46,20.32,9.9,38.72,22.62,55.57l-18.57,16.12ZM541.73,916.86c-16.19-19.16-15.52-47.32-3.35-68.31.63-1.09.57-4.4,3.35-1.99,1.21,1.05,8.85,23.38,9.29,26.37,2.44,16.77-2.76,28.74-9.28,43.93ZM539.55,791.61l-15.57-17.5,16.96-16.12,16.82,17.36-18.21,16.26ZM524.46,691.14l15.1-14.64c2.82-.42,16.74,13.12,16.73,16.09l-15.38,17.54-16.45-19ZM539.38,630l-21.76-23.19,21.77-27.43c3.94-.85,21.82,23.38,25,27.42-2.58,3.67-21.73,23.92-25.01,23.21ZM585.1,957.48c-3.98,2.03-20.82-11.43-20.52-14.34,12.03-17.77,18.34-35.74,23.12-55.8l19.97,17.71c-5.37,18.12-11.9,36.09-22.57,52.42ZM603.81,864.87c-6.16-5.11-37.34-39.57-38.84-45.03-.81-2.92,12.67-17.82,14.81-18.23,3.87-.75,14.27,19.01,15.99,22.47,6.71,13.54,12.11,28.84,13.73,43.57-2.85.52-3.92-1.33-5.67-2.77ZM715.94,930.91l9.16-16.7,26.3,4.76c-8.67,8.91-21.98,13.28-35.45,11.94ZM765.94,890.15c-18.53-.63-34.6-8.62-53.25-3.54-16.39,4.46-25.36,20.53-27.41,34.48-3.6,2.78-36.83-18.63-39.98-23.5-.22-24.38.74-48.43-10.03-71.41l40.33,16.18c-3,6.39-9.82,9.87-14.19,16.43-5.85,8.79-8.25,17.27-6.39,27.51,1.04,5.71,5.66,17.29,14.2,15.91,6.5-19.46,33.88-40.44,57.24-41.62,13.84-.7,31.22,7.71,43.6,12.63l-4.14,16.93ZM799.83,891.55c-.69-16.1,11.5-24.01,29.02-23.89-3.68,13.13-14.95,19.88-29.02,23.89ZM894.97,793.13c-9.96,13.09-10.01,34.22-31.31,38.04-6.58-14.92-15.61-28.26-26.75-40.86l58.06,2.81ZM694.98,769.22c23.55-.85,46.08,5.38,67.72,12.67l-29.89,7.03c-9.66.58-20.5-4.19-28.02-9.27-1.63-1.1-11.77-8.9-9.81-10.42ZM616.74,749.53c33.67,31.92,66.81,72.69,122.65,68.95,21.53-1.44,39.66-10.24,59.28-16.74,12.5,10,27.37,21.03,30.18,36.37-5.81.89-12.1.91-17.83,2.05-6,1.19-17.68,6.4-21.5,6.32-11.15-.25-56.5-15.21-69.58-19.58-34.02-11.39-71.7-27.91-100.64-47.26-2.46-1.64-10.4-6.77-11.59-8.26-3.15-3.95,8.09-16.52,9.02-21.84ZM597.15,207.21c-2.02,1.64-3.3,5.08-6.21,6.51l-24.89-26.18,28.13-24.41,19.94,29.08c.56,3.03-13.88,12.49-16.97,15ZM623.24,227.84c2.18-1.12,3.99,3.08,3.99,3.49v37.27c-4.63.74-2.6-1.08-3.66-3.08-1.99-3.75-12.75-23.73-12.52-25.7.42-3.64,9.4-8.81,12.19-11.98ZM726.11,413.16c-35.31,18.14-79.27,20.23-111.77,43.87,11.02-62.4,13.38-125.86,73.42-168.71,6.14-4.38,54.86-33.17,58.82-29.56l-3.16,20.43c-33.05,8.64-62.6,24.84-79.36,51.74-17,27.29-20.71,56.37-20.33,87.12,1.28,9.03,19.1,3.08,26.3,1.06,54.04-15.13,89.72-66.6,102.53-112.4l28.89-.83c-6.86,41.68-32.9,85.49-75.33,107.29ZM720,341.74c-6.43,10.22-19.32,24.33-29.07,32.31-1.2.98-7.76,5.2-8.85,4.22,5.3-25.76,20.91-51.92,49.99-61.86,1.14.99-10.23,22.42-12.06,25.33ZM775.63,423.27c-.67-2.14.65-2.34,1.58-3.53,3.66-4.64,11.14-10.12,15.85-15.71,19.25-22.82,31.98-50.2,39.03-77.78l12.05,32.36,21.68,24.78c.74,3.7-13.92,10.32-17.6,11.76-.45-5.21.67-10.93-.16-16.05-.97-5.98-11.01-20.35-18.97-16.06-1.1.59-8.02,18.5-8.76,21.17-7.5,26.93-2,44.9,34.41,39.84,16.99-2.36,26.94-11.62,39.42-20.49l16.86,14.63c-40.24,30.48-89.72,4.6-135.39,5.08ZM952.18,479.57l-41.05-24.65,27.47-15.53,3.11-.03c19.58,16.74,35.72,38.04,37.12,62.66l-26.65-22.45Z"/>
  <path class="cls-2" d="M746.58,258.75l-3.16,20.43c-33.05,8.64-62.6,24.84-79.36,51.74-17,27.29-20.71,56.37-20.33,87.12,1.28,9.03,19.1,3.08,26.3,1.06,54.04-15.13,89.72-66.6,102.53-112.4l28.89-.83c-6.86,41.68-32.9,85.49-75.33,107.29-35.31,18.14-79.27,20.23-111.77,43.87,11.02-62.4,13.38-125.86,73.42-168.71,6.14-4.38,54.86-33.17,58.82-29.56Z"/>
  <path class="cls-2" d="M465.92,455.62c-38.28-25.77-90.16-25.65-127.42-52.72-21.5-15.62-38.32-39.39-47.96-62.25-3.75-8.88-9.49-24.26-10.1-33.41-.2-2.95,0-1.78,2.38-2.1,8.31-1.1,17.79,2.51,26.46,1.59,13.09,45.7,49.29,98.18,103.79,112.72,5.05,1.35,23.39,6.33,25.22,1.51,1.22-3.22.51-19.11.22-23.69-2.84-44.77-24.31-89.43-73.1-109.24-5.11-2.07-23.59-6.35-25.3-7.47-4.58-3.01-1.67-17.21-4.82-21.8,4.92-3.08,53.58,25.95,60.44,30.96,35.73,26.13,47.93,53.89,58.13,92.76,2.32,8.84,14.86,69.84,12.06,73.14Z"/>
  <path class="cls-2" d="M828.85,838.11c-5.81.89-12.1.91-17.83,2.05-6,1.19-17.68,6.4-21.5,6.32-11.15-.25-56.5-15.21-69.58-19.58-34.02-11.39-71.7-27.91-100.64-47.26-2.46-1.64-10.4-6.77-11.59-8.26-3.15-3.95,8.09-16.52,9.02-21.84,33.67,31.92,66.81,72.69,122.65,68.95,21.53-1.44,39.66-10.24,59.28-16.74,12.5,10,27.37,21.03,30.18,36.37Z"/>
  <path class="cls-2" d="M251.43,838.11c6.61-14.49,17.7-26.88,31.67-36.34,27.89,10.56,53.37,20.01,84.84,16.3,34.46-4.07,73.73-46.56,95.59-68.54l11.89,19.24c.44,2.32-20.48,15.26-24.43,17.64-34.88,20.98-77.28,37.59-117.36,49.55-7.07,2.11-36.71,11.52-41.35,11.65-5.98.17-30.08-13.27-40.84-9.49Z"/>
  <path class="cls-2" d="M446.58,825.47c-9.8,22.1-11.52,47.28-8.3,70.68l-39.29,26.31c-6.59-10.49-7.48-22.01-18.69-30.08-20.75-14.93-41.23-3.74-64.34-2.26l-4.85-18.19c14.41-3.34,30.48-12.44,45.75-11.18,23.79,1.97,48.7,22.56,55.91,41.99,6.67.78,10.6-6.08,12.37-10.88,4.59-12.43,1.54-22.69-5.72-33.59-4.15-6.23-10.2-9.92-13.17-15.91l40.32-16.88Z"/>
  <path class="cls-2" d="M675.61,842.36c-3,6.39-9.82,9.87-14.19,16.43-5.85,8.79-8.25,17.27-6.39,27.51,1.04,5.71,5.66,17.29,14.2,15.91,6.5-19.46,33.88-40.44,57.24-41.62,13.84-.7,31.22,7.71,43.6,12.63l-4.14,16.93c-18.53-.63-34.6-8.62-53.25-3.54-16.39,4.46-25.36,20.53-27.41,34.48-3.6,2.78-36.83-18.63-39.98-23.5-.22-24.38.74-48.43-10.03-71.41l40.33,16.18Z"/>
  <path class="cls-2" d="M848.21,395.15c-.45-5.21.67-10.93-.16-16.05-.97-5.98-11.01-20.35-18.97-16.06-1.1.59-8.02,18.5-8.76,21.17-7.5,26.93-2,44.9,34.41,39.84,16.99-2.36,26.94-11.62,39.42-20.49l16.86,14.63c-40.24,30.48-89.72,4.6-135.39,5.08-.67-2.14.65-2.34,1.58-3.53,3.66-4.64,11.14-10.12,15.85-15.71,19.25-22.82,31.98-50.2,39.03-77.78l12.05,32.36,21.68,24.78c.74,3.7-13.92,10.32-17.6,11.76Z"/>
  <path class="cls-2" d="M306.25,423.27c-47.21.6-93.99,23.96-137.06-4.91l20.14-14.76c11.35,16.6,58.65,31.91,72.5,12.58,7.71-10.76-.58-44.72-11.99-54.13-16.83,4.69-17.16,19.97-16.17,33.1l-17.61-9.28,25.45-33.81,8.27-25.8c7.3,26.79,20.4,55.45,39,77.8,4.47,5.37,12.18,11.01,15.88,15.69.94,1.19,2.25,1.39,1.58,3.53Z"/>
  <path class="cls-2" d="M538.55,420.46c-3.82-7.06-10.22-12.58-13.03-20.3-5.99-16.53-.88-32.17,4.5-48.26,2.61-7.81,5.89-18.1,11.7-24.24,9.04,24.66,24.68,50.23,12.71,76.45-1.33,2.92-11.95,18.73-15.89,16.35Z"/>
  <path class="cls-2" d="M493.35,354.38c-4.27.41-2.55-.08-3.24-2.08-10.56-30.33-9.87-54.14,4.43-83.45.84-1.72-.71-3.73,2.83-3.06l23.15,27.64c-10.15,19.79-23.76,39.03-27.17,60.95Z"/>
  <path class="cls-2" d="M591.73,354.37c-1.22.81-3.43-3.02-4.01-4.22-4.31-8.92-6.72-19.87-11.35-29.48-4.29-8.9-10.44-17.16-14.7-26.07l22.04-30.22c2.16-1.27,7.86,12.59,8.5,14.36,9,24.66,7.59,50.97-.48,75.63Z"/>
  <path class="cls-2" d="M714.34,237.65c3.48-22.31,4-43.86-4.48-65.46l19.54-6.12c5.08,1.25,13.97,35.67,15.1,41.76.92,4.98,4.15,15.55-.48,18.45-6.41,4.03-22.51,6.13-29.68,11.37Z"/>
  <path class="cls-2" d="M370.65,171.69c-.93,10.57-5.68,20.84-6.38,31.46-.77,11.79,2.97,22.88,2.49,34.5-4.57-4.4-31.28-9.73-31.38-14.63,2.11-19.59,7.31-38.52,14.48-57.08l20.79,5.75Z"/>
  <path class="cls-2" d="M299.66,246.22l3.37,27.99-56.45,1.41,6.35-33.13c15.72-2.19,31.43,1.14,46.73,3.74Z"/>
  <path class="cls-2" d="M835.29,275.61l-54.84-.66c-2.22-1.3-1.33-2.17-1.22-3.83.51-8.23,2.11-16.71,2.97-24.92,15.36-2.22,31.03-5.92,46.75-3.72l6.34,33.13Z"/>
  <path class="cls-2" d="M886.92,635.63c18.27-1.25,35.42-8.39,49.82-17.73,18.16-11.78,27.2-27.34,40.47-42.74,3.02,32.31-29.33,66.79-66.95,68.88-8.01.44-21.79.13-23.35-8.41Z"/>
  <path class="cls-2" d="M104.67,502.03c-1.31-24.91,16.53-45.81,35.5-62.67l3.11.03,27.47,15.53c-25.35,12.76-46.4,28.35-66.08,47.11Z"/>
  <path class="cls-2" d="M978.83,502.02l-26.65-22.45-41.05-24.65,27.47-15.53,3.11-.03c19.58,16.74,35.72,38.04,37.12,62.66Z"/>
  <path class="cls-2" d="M585.1,957.48c-3.98,2.03-20.82-11.43-20.52-14.34,12.03-17.77,18.34-35.74,23.13-55.8l19.97,17.71c-5.37,18.12-11.9,36.09-22.57,52.42Z"/>
  <path class="cls-2" d="M494.96,887.33c1.46,20.32,9.9,38.72,22.62,55.57l-18.57,16.12c-5.37.02-24.28-45.47-24.89-52.8l20.84-18.89Z"/>
  <path class="cls-2" d="M107.84,576.57c19.6,34.93,42.45,49.45,84.95,58.86,2.22.49,4.49-.89,3.77,2.28-10.38,10.72-32.05,6-45.11,1.4-27.16-9.58-45.95-36.72-46.82-61.84l3.21-.7Z"/>
  <path class="cls-2" d="M539.38,209.53c4.81-1.04,21.49,23.02,26.45,26.2l-24.89,28.62-24.59-27.38,23.03-27.44Z"/>
  <path class="cls-2" d="M894.97,793.13c-9.96,13.09-10.01,34.22-31.31,38.04-6.58-14.92-15.61-28.26-26.75-40.86l58.06,2.81Z"/>
  <path class="cls-2" d="M539.39,579.37c3.94-.85,21.82,23.38,25,27.42-2.58,3.67-21.73,23.92-25.01,23.21l-21.76-23.19,21.77-27.43Z"/>
  <path class="cls-2" d="M219.15,831.08c-20.59-2.11-24.26-24.15-30.63-37.95,1.42-1.77,43.8-3.42,49.27-2.9,2.44.23,4,.14,5.53,2.18-10.35,11.4-20.6,24.19-24.18,38.67Z"/>
  <polygon class="cls-2" points="487.71 163.15 517.16 186.31 492.33 212.24 468 193.38 487.71 163.15"/>
  <path class="cls-2" d="M597.15,207.21c-2.02,1.64-3.3,5.08-6.21,6.51l-24.89-26.18,28.13-24.41,19.94,29.08c.56,3.03-13.88,12.49-16.97,15Z"/>
  <polygon class="cls-2" points="539.33 472.52 561.04 499.9 540.94 528.72 520.9 499.91 539.33 472.52"/>
  <path class="cls-2" d="M472.41,869.05c1.47-21.04,10.6-46.35,24.44-63.75,7.88-9.92,12.56,8.07,19.98,11.76l.1,2.8-44.53,49.19Z"/>
  <path class="cls-2" d="M662.73,262.97c.74-20.06-1.26-40.28-7.8-59.59l23.89-16.34c8.26,25.27,1.83,54.99-16.09,75.93Z"/>
  <path class="cls-2" d="M609.48,867.64c-2.85.52-3.92-1.33-5.67-2.77-6.16-5.11-37.34-39.57-38.84-45.03-.81-2.92,12.67-17.82,14.81-18.23,3.87-.75,14.27,19.01,15.99,22.47,6.71,13.54,12.11,28.84,13.73,43.57Z"/>
  <path class="cls-2" d="M156.25,334.69c.03,15.49,7.66,30.12,14.39,44.15l-24.81,14.97c-9.7-15.91-13.2-33.56-2.22-49.76,1.33-1.96,9.9-11.87,12.64-9.36Z"/>
  <path class="cls-2" d="M427.07,202.71c-6.58,18.55-7.1,36.23-7.9,55.35-.07,1.7,1.21,5.23-1.59,4.9-14.87-22.55-23.83-50.38-13.74-75.92l23.23,15.68Z"/>
  <path class="cls-2" d="M936.89,395.15l-23.99-16.44c4.49-14.5,12.94-28.7,12.73-44.02,2.21-2.26,12.19,10,13.29,11.6,11,16.15,6.35,32.68-2.03,48.85Z"/>
  <path class="cls-2" d="M311.09,168.76l-9.68,47.8c-11.31-3.56-23.51-4.63-35.46-4.23,7.97-18.24,22.97-37.32,45.15-43.58Z"/>
  <path class="cls-2" d="M815.94,210.92l-35.48,4.24-9.67-46.4c22.28,6.17,35.92,24.57,45.15,42.16Z"/>
  <path class="cls-2" d="M541.72,846.56c1.21,1.05,8.85,23.38,9.29,26.37,2.44,16.77-2.76,28.74-9.28,43.93-16.19-19.16-15.52-47.32-3.35-68.31.63-1.09.57-4.4,3.35-1.99Z"/>
  <path class="cls-2" d="M399.79,379.68c-24.99-15.03-40.42-38.64-49.98-63.27,29.21,10.26,47.1,36.74,49.98,63.27Z"/>
  <path class="cls-2" d="M732.06,316.41c1.14.99-10.23,22.42-12.06,25.33-6.43,10.22-19.32,24.33-29.07,32.31-1.2.98-7.76,5.2-8.85,4.22,5.3-25.76,20.91-51.92,49.99-61.86Z"/>
  <path class="cls-2" d="M459.49,143.46l-20.16,29.49-23.3-14.16c-1.7-2.11,17.15-26,20.31-26.45l23.15,11.13Z"/>
  <path class="cls-2" d="M665.85,158.78l-23.3,14.16c-2.48-4.94-19.58-25.19-18.41-28.58.64-1.87,20.81-12.28,22.49-11.56,2.89,3.52,21.42,23.22,19.22,25.98Z"/>
  <path class="cls-2" d="M885.28,357.18c-13.77-13.01-20.22-28.52-17.71-46.4l27.13,9.26-9.41,37.14Z"/>
  <path class="cls-2" d="M214.32,312.18c1.71,15.82-3.59,33.16-17.72,43.59l-9-36.64,26.72-6.95Z"/>
  <path class="cls-2" d="M762.7,781.88l-29.89,7.03c-9.66.58-20.5-4.19-28.02-9.27-1.63-1.1-11.77-8.9-9.81-10.42,23.55-.85,46.08,5.38,67.72,12.67Z"/>
  <path class="cls-2" d="M388.52,769.22c-17.95,21.21-42.3,23-69.34,14.03,1.76-2.37,7.8-4.27,10.86-5.28,18.43-6.08,38.92-8.4,58.49-8.76Z"/>
  <polygon class="cls-2" points="540.94 757.99 557.76 775.35 539.55 791.61 523.98 774.11 540.94 757.99"/>
  <path class="cls-2" d="M539.55,676.51c2.82-.42,16.74,13.12,16.73,16.09l-15.38,17.54-16.45-19,15.1-14.64Z"/>
  <path class="cls-2" d="M594.96,700.31c-1.67,16.23-6.18,32.86-16.92,46.38l-11.91-13.12,28.83-33.25Z"/>
  <path class="cls-2" d="M893.35,285.46l-23.47-5.53-2.31-28.2c1.99-1.95,16.48,12.38,18.1,14.44,4.62,5.84,7.72,12.01,7.69,19.3Z"/>
  <path class="cls-2" d="M503.01,535.78l12.6,18.76c-.14,1.31-14.62,17.88-16.94,20.23-.99,1,.06,2.65-3.68,1.79-3.21-11.33-1.04-28.43,4.44-39.01.99-1.9.16-2.22,3.58-1.77Z"/>
  <path class="cls-2" d="M215.94,251.73l-3.3,29.46-24.1,5.69c1.3-14.03,11.81-30.35,27.4-35.14Z"/>
  <path class="cls-2" d="M485.31,700.31l30.34,34.47-11.84,10.52c-2.28.45-2.74-1.07-3.65-2.4-8.43-12.35-11.66-28.61-14.85-42.59Z"/>
  <path class="cls-2" d="M582.06,535.78c3.14,13.38,8.06,27.13,4.83,40.77-4.47-3.41-21.09-19.07-20.93-23.24,3.85-4.6,7.7-10.86,11.54-15.19,1.39-1.57,1.62-2.91,4.55-2.34Z"/>
  <path class="cls-2" d="M347.85,914.42c5.97-.53,8.69-.96,12.37,3.91,17.49,23.11-22.12,11.72-29.74.65-.06-1.8,14.87-4.33,17.37-4.55Z"/>
  <path class="cls-2" d="M627.23,268.59c-4.63.74-2.6-1.08-3.66-3.08-1.99-3.75-12.75-23.73-12.52-25.7.42-3.64,9.4-8.81,12.19-11.98,2.18-1.12,3.99,3.08,3.99,3.49v37.27Z"/>
  <path class="cls-2" d="M457.85,268.58c-2.91-.73-3.11-6.94-3.27-9.08-.84-11.04.66-22.15,1.69-33.1l15.95,13.56c-5.78,9.11-11.35,18.46-14.38,28.62Z"/>
  <path class="cls-2" d="M715.94,930.91l9.16-16.7,26.3,4.76c-8.67,8.91-21.98,13.28-35.45,11.94Z"/>
  <path class="cls-2" d="M828.84,867.66c-3.68,13.13-14.95,19.88-29.02,23.89-.69-16.1,11.5-24.01,29.02-23.89Z"/>
  <path class="cls-2" d="M283.68,891.54c-14.51-2.21-27.3-10.95-30.64-23.88,19.69.51,26.12,8.33,30.64,23.88Z"/>
  <path class="cls-2" d="M590.13,99.86c2.42-1.65,27.36,9.14,27.39,10.53l-15.17,9.11c-5.86-5.57-9.16-12.71-12.22-19.65Z"/>
  <path class="cls-2" d="M491.75,99.86l-11.32,19.67-16.06-9.14c.04-1.4,24.99-12.18,27.39-10.53Z"/>
  <path class="cls-2" d="M396.58,125.16c1.82,1.53-9.61,15.2-11.28,17.67l-16.13-3.63c6.14-8.06,16.39-13.14,27.41-14.04Z"/>
  <path class="cls-2" d="M712.71,139.2l-16.19,3.63-11.22-17.67c3.34-2.59,25.95,8.82,27.41,14.04Z"/>
  <path class="cls-2" d="M578.83,433.12c.61,2.72-.71,26.91-4.02,26.69l-10-11.93c4.35-5.01,7.89-11.25,14.02-14.77Z"/>
  <path class="cls-2" d="M504.66,458.43l-1.61-25.3,14.13,13.34c-.46,1.95-10.03,14.42-12.52,11.96Z"/>
  <path class="cls-2" d="M499.82,641.25c1.64-1.45,13.86,9.25,14.34,10.82,1.1,3.68-4.68,6.27-7.09,8.83l-7.25-19.65Z"/>
  <polygon class="cls-2" points="582.05 639.84 574.81 660.9 565.97 653.2 582.05 639.84"/>
</svg>